<?xml version="1.0" standalone="no"?>
<svg version="1.0" xmlns="http://www.w3.org/2000/svg"
 width="1600.000000pt" height="933.000000pt" viewBox="0 0 1600.000000 933.000000"
 preserveAspectRatio="xMidYMid meet">

<g transform="translate(0.000000,933.000000) scale(0.100000,-0.100000)"
fill="#ffffff" stroke="none">
<path d="M3860 7315 c-35 -8 -101 -32 -145 -54 -239 -117 -378 -339 -378 -606
0 -150 41 -281 124 -396 19 -26 941 -959 2049 -2074 1493 -1502 2033 -2038
2084 -2072 38 -26 107 -60 155 -77 83 -30 92 -31 251 -31 159 0 168 1 251 31
48 17 117 51 155 77 51 34 591 570 2084 2072 1108 1115 2030 2048 2048 2074
131 181 163 408 88 623 -35 100 -81 171 -163 254 -85 86 -212 155 -333 180
-156 33 -344 1 -485 -83 -46 -28 -378 -355 -1434 -1417 -756 -760 -1563 -1570
-1793 -1801 l-418 -420 -423 425 c-233 234 -1040 1044 -1793 1801 -1053 1058
-1383 1384 -1429 1412 -141 83 -341 117 -495 82z"/>
</g>
</svg>
