<?xml version="1.0" standalone="no"?>
<!DOCTYPE svg PUBLIC "-//W3C//DTD SVG 20010904//EN"
 "http://www.w3.org/TR/2001/REC-SVG-20010904/DTD/svg10.dtd">
<svg version="1.0" xmlns="http://www.w3.org/2000/svg"
 width="475.000000pt" height="353.000000pt" viewBox="0 0 475.000000 353.000000"
 preserveAspectRatio="xMidYMid meet">

<g transform="translate(0.000000,353.000000) scale(0.100000,-0.100000)"
fill="#1a1a1a" stroke="none">
<path d="M120 3469 c-68 -40 -98 -110 -79 -184 9 -34 56 -86 300 -330 159
-160 289 -295 289 -300 0 -5 -130 -140 -289 -300 -244 -244 -291 -296 -300
-330 -38 -147 121 -260 250 -176 24 16 165 151 314 300 l270 271 295 -294
c196 -196 304 -297 323 -302 45 -11 112 1 147 26 36 25 69 90 70 133 0 63 -31
101 -315 387 l-285 285 280 280 c281 281 320 328 320 391 -1 74 -63 149 -134
161 -88 14 -89 14 -406 -303 l-296 -294 -269 271 c-149 149 -290 284 -314 300
-55 36 -119 39 -171 8z"/>
<path d="M3140 3471 c-69 -36 -103 -118 -80 -194 10 -35 60 -90 301 -332 l289
-290 -270 -270 c-149 -149 -282 -286 -296 -306 -71 -103 -11 -243 110 -256 25
-3 57 -2 73 1 19 5 127 106 323 302 l295 294 270 -271 c149 -149 290 -284 314
-300 129 -84 288 29 250 176 -9 34 -56 86 -300 330 -159 160 -289 295 -289
300 0 5 130 140 289 300 244 244 291 296 300 330 38 147 -123 260 -250 176
-24 -17 -165 -152 -314 -301 l-270 -270 -290 289 c-159 160 -303 295 -318 301
-43 15 -98 12 -137 -9z"/>
<path d="M2304 749 c-200 -175 -468 -312 -714 -365 -134 -29 -355 -25 -481 8
-179 48 -337 138 -498 282 -57 52 -94 78 -118 82 -104 20 -191 -43 -201 -144
-6 -69 16 -110 102 -188 214 -194 441 -314 698 -371 64 -14 125 -18 268 -17
204 0 302 15 482 75 120 39 336 143 444 214 47 30 89 55 93 55 5 0 40 -20 78
-45 181 -120 446 -231 654 -275 142 -30 352 -37 484 -17 284 44 537 170 771
381 86 78 108 119 102 188 -8 82 -64 138 -146 146 -62 6 -95 -11 -187 -95
-142 -131 -309 -224 -484 -270 -83 -23 -116 -26 -251 -26 -169 0 -235 11 -394
64 -183 61 -393 183 -551 318 -38 34 -73 61 -76 61 -3 0 -37 -27 -75 -61z"/>
</g>
</svg>
